<?xml version="1.0" encoding="UTF-8"?><svg id="Logo" xmlns="http://www.w3.org/2000/svg" viewBox="0 0 24 24"><defs><style>.cls-1{fill:#231f20;}</style></defs><path class="cls-1" d="M20,3.07v17.85c2.45-2.2,4-5.38,4-8.93s-1.55-6.73-4-8.93Z"/><path class="cls-1" d="M4,3.07C1.55,5.27,0,8.45,0,12s1.55,6.73,4,8.93V3.07Z"/><path class="cls-1" d="M16,8.64l-4,4-4-4v14.66c1.25.44,2.6.7,4,.7s2.75-.25,4-.7v-14.66Z"/><path class="cls-1" d="M12,6.99l5.6-5.6c-1.67-.88-3.58-1.39-5.6-1.39s-3.93.51-5.6,1.39l5.6,5.6Z"/></svg>