<svg viewBox="0 0 32 32" xmlns="http://www.w3.org/2000/svg">
<path d="M18.6666 2.66675C19.7275 2.66675 20.7449 3.08818 21.4951 3.83832C22.2452 4.58847 22.6666 5.60588 22.6666 6.66675V8.00008H25.3333C26.3942 8.00008 27.4116 8.42151 28.1617 9.17166C28.9119 9.9218 29.3333 10.9392 29.3333 12.0001V24.0001C29.3333 25.0609 28.9119 26.0784 28.1617 26.8285C27.4116 27.5787 26.3942 28.0001 25.3333 28.0001H6.66663C5.60576 28.0001 4.58834 27.5787 3.8382 26.8285C3.08805 26.0784 2.66663 25.0609 2.66663 24.0001V12.0001C2.66663 10.9392 3.08805 9.9218 3.8382 9.17166C4.58834 8.42151 5.60576 8.00008 6.66663 8.00008H9.33329V6.66675C9.33329 5.60588 9.75472 4.58847 10.5049 3.83832C11.255 3.08818 12.2724 2.66675 13.3333 2.66675H18.6666ZM18.6666 5.33342H13.3333C12.9797 5.33342 12.6405 5.47389 12.3905 5.72394C12.1404 5.97399 12 6.31313 12 6.66675V8.00008H20V6.66675C20 6.31313 19.8595 5.97399 19.6094 5.72394C19.3594 5.47389 19.0202 5.33342 18.6666 5.33342Z"/>
</svg>
