<svg viewBox="0 0 32 32" xmlns="http://www.w3.org/2000/svg">
<path d="M1.96228 27.3372C1.96228 28.7864 3.30603 29.9622 4.96228 29.9622H26.9623C28.6185 29.9622 29.9623 28.7864 29.9623 27.3372V12.4622H1.96228V27.3372ZM21.9623 16.6184C21.9623 16.2575 22.2998 15.9622 22.7123 15.9622H25.2123C25.6248 15.9622 25.9623 16.2575 25.9623 16.6184V18.8059C25.9623 19.1668 25.6248 19.4622 25.2123 19.4622H22.7123C22.2998 19.4622 21.9623 19.1668 21.9623 18.8059V16.6184ZM21.9623 23.6184C21.9623 23.2575 22.2998 22.9622 22.7123 22.9622H25.2123C25.6248 22.9622 25.9623 23.2575 25.9623 23.6184V25.8059C25.9623 26.1668 25.6248 26.4622 25.2123 26.4622H22.7123C22.2998 26.4622 21.9623 26.1668 21.9623 25.8059V23.6184ZM13.9623 16.6184C13.9623 16.2575 14.2998 15.9622 14.7123 15.9622H17.2123C17.6248 15.9622 17.9623 16.2575 17.9623 16.6184V18.8059C17.9623 19.1668 17.6248 19.4622 17.2123 19.4622H14.7123C14.2998 19.4622 13.9623 19.1668 13.9623 18.8059V16.6184ZM13.9623 23.6184C13.9623 23.2575 14.2998 22.9622 14.7123 22.9622H17.2123C17.6248 22.9622 17.9623 23.2575 17.9623 23.6184V25.8059C17.9623 26.1668 17.6248 26.4622 17.2123 26.4622H14.7123C14.2998 26.4622 13.9623 26.1668 13.9623 25.8059V23.6184ZM5.96228 16.6184C5.96228 16.2575 6.29978 15.9622 6.71228 15.9622H9.21228C9.62478 15.9622 9.96228 16.2575 9.96228 16.6184V18.8059C9.96228 19.1668 9.62478 19.4622 9.21228 19.4622H6.71228C6.29978 19.4622 5.96228 19.1668 5.96228 18.8059V16.6184ZM5.96228 23.6184C5.96228 23.2575 6.29978 22.9622 6.71228 22.9622H9.21228C9.62478 22.9622 9.96228 23.2575 9.96228 23.6184V25.8059C9.96228 26.1668 9.62478 26.4622 9.21228 26.4622H6.71228C6.29978 26.4622 5.96228 26.1668 5.96228 25.8059V23.6184ZM26.9623 5.46216H23.9623V2.83716C23.9623 2.35591 23.5123 1.96216 22.9623 1.96216H20.9623C20.4123 1.96216 19.9623 2.35591 19.9623 2.83716V5.46216H11.9623V2.83716C11.9623 2.35591 11.5123 1.96216 10.9623 1.96216H8.96228C8.41228 1.96216 7.96228 2.35591 7.96228 2.83716V5.46216H4.96228C3.30603 5.46216 1.96228 6.63794 1.96228 8.08716V10.7122H29.9623V8.08716C29.9623 6.63794 28.6185 5.46216 26.9623 5.46216Z"/>
</svg>
