<svg viewBox="0 0 32 32" xmlns="http://www.w3.org/2000/svg">
<path d="M16 2.66663C13.3629 2.66663 10.7851 3.44861 8.59242 4.9137C6.39977 6.37878 4.6908 8.46116 3.68163 10.8975C2.67246 13.3339 2.40842 16.0147 2.92289 18.6012C3.43736 21.1876 4.70724 23.5633 6.57194 25.428C8.43664 27.2927 10.8124 28.5626 13.3988 29.0771C15.9852 29.5916 18.6661 29.3275 21.1025 28.3184C23.5388 27.3092 25.6212 25.6002 27.0863 23.4076C28.5514 21.2149 29.3334 18.637 29.3334 16C29.3334 14.249 28.9885 12.5152 28.3184 10.8975C27.6484 9.27984 26.6662 7.80998 25.4281 6.57187C24.19 5.33375 22.7201 4.35163 21.1025 3.68157C19.4848 3.0115 17.751 2.66663 16 2.66663ZM19.4 21.1066C19.1853 21.257 18.9288 21.3363 18.6667 21.3333C18.4471 21.3322 18.2312 21.2768 18.0381 21.1721C17.845 21.0674 17.6808 20.9167 17.56 20.7333L14.8934 16.7333C14.7476 16.5163 14.6687 16.2613 14.6667 16V9.33329C14.6667 8.97967 14.8072 8.64053 15.0572 8.39048C15.3073 8.14044 15.6464 7.99996 16 7.99996C16.3536 7.99996 16.6928 8.14044 16.9428 8.39048C17.1929 8.64053 17.3334 8.97967 17.3334 9.33329V15.6L19.7734 19.2666C19.9663 19.5606 20.0354 19.9189 19.9655 20.2635C19.8955 20.6081 19.6923 20.9111 19.4 21.1066Z"/>
</svg>
