<svg viewBox="0 0 32 32" xmlns="http://www.w3.org/2000/svg">
<path d="M16 2C23.732 2 30 8.26801 30 16C30 23.732 23.732 30 16 30C8.26801 30 2 23.732 2 16C2 8.26801 8.26801 2 16 2ZM22.6211 9.37988C22.1148 8.8738 21.2934 8.87384 20.7871 9.37988L16 14.166L11.2129 9.37988C10.7066 8.87374 9.88615 8.87369 9.37988 9.37988C8.87389 9.88617 8.87381 10.7067 9.37988 11.2129L14.167 16L9.37988 20.7871C8.87389 21.2934 8.87384 22.1139 9.37988 22.6201C9.88613 23.1261 10.7067 23.1261 11.2129 22.6201L16 17.833L20.7871 22.6201C21.2934 23.1258 22.115 23.1261 22.6211 22.6201C23.1267 22.114 23.1266 21.2933 22.6211 20.7871L17.833 16L22.6211 11.2129C23.1269 10.7068 23.1266 9.88616 22.6211 9.37988Z"/>
</svg>
