<svg viewBox="0 0 32 32" fill="none" xmlns="http://www.w3.org/2000/svg">
<rect x="3" y="3" width="26" height="26" rx="13"/>
<path d="M12.2051 22V20.576C12.2051 20.096 12.2905 19.6427 12.4611 19.216C12.6318 18.7787 12.8505 18.3787 13.1171 18.016C13.3945 17.6427 13.6931 17.3173 14.0131 17.04C14.3438 16.752 14.6585 16.512 14.9571 16.32C15.3198 16.0853 15.6878 15.8613 16.0611 15.648C16.4451 15.424 16.7651 15.1893 17.0211 14.944C17.2771 14.6987 17.4051 14.4267 17.4051 14.128C17.4051 13.8507 17.3465 13.6107 17.2291 13.408C17.1118 13.1947 16.9518 13.0293 16.7491 12.912C16.5465 12.7947 16.3171 12.736 16.0611 12.736C15.8051 12.736 15.5705 12.8 15.3571 12.928C15.1545 13.0453 14.9891 13.2053 14.8611 13.408C14.7331 13.6 14.6691 13.824 14.6691 14.08H12.3171C12.3171 13.4187 12.4878 12.8213 12.8291 12.288C13.1705 11.7547 13.6238 11.3333 14.1891 11.024C14.7651 10.704 15.4105 10.544 16.1251 10.544C16.7971 10.544 17.4105 10.704 17.9651 11.024C18.5198 11.3333 18.9571 11.76 19.2771 12.304C19.5971 12.848 19.7571 13.456 19.7571 14.128C19.7571 14.6613 19.6558 15.1147 19.4531 15.488C19.2611 15.8613 18.9998 16.1867 18.6691 16.464C18.3385 16.7413 17.9811 16.992 17.5971 17.216C17.2238 17.4293 16.8611 17.6373 16.5091 17.84C16.2638 17.9787 16.0238 18.1333 15.7891 18.304C15.5545 18.464 15.3358 18.6347 15.1331 18.816C14.9411 18.9973 14.7865 19.184 14.6691 19.376C14.5518 19.568 14.4931 19.7653 14.4931 19.968H19.8371V22H12.2051Z"/>
</svg>
