<svg viewBox="0 0 32 32" fill="none" xmlns="http://www.w3.org/2000/svg">
<rect x="3" y="3" width="26" height="26" rx="13" fill="#F24822"/>
<path d="M15.9309 22.256C15.1629 22.256 14.4643 22.08 13.8349 21.728C13.2163 21.3653 12.7203 20.8853 12.3469 20.288C11.9843 19.68 11.8029 19.008 11.8029 18.272H14.1549C14.1549 18.592 14.2349 18.8907 14.3949 19.168C14.5656 19.4347 14.7896 19.648 15.0669 19.808C15.3549 19.9573 15.6749 20.032 16.0269 20.032C16.3789 20.032 16.6936 19.9467 16.9709 19.776C17.2483 19.6053 17.4723 19.3813 17.6429 19.104C17.8136 18.816 17.8989 18.5013 17.8989 18.16C17.8989 17.808 17.8136 17.4933 17.6429 17.216C17.4723 16.928 17.2429 16.704 16.9549 16.544C16.6776 16.3733 16.3683 16.288 16.0269 16.288C15.7389 16.288 15.4669 16.336 15.2109 16.432C14.9549 16.5173 14.7256 16.64 14.5229 16.8C14.3309 16.9493 14.1869 17.1307 14.0909 17.344L12.2509 16.224C12.4643 15.808 12.7683 15.44 13.1629 15.12C13.5576 14.7893 13.9896 14.5333 14.4589 14.352C14.9389 14.16 15.4296 14.064 15.9309 14.064C16.7416 14.064 17.4723 14.2453 18.1229 14.608C18.7736 14.9707 19.2909 15.4667 19.6749 16.096C20.0589 16.7147 20.2509 17.408 20.2509 18.176C20.2509 18.9333 20.0589 19.6213 19.6749 20.24C19.2909 20.8587 18.7736 21.3493 18.1229 21.712C17.4723 22.0747 16.7416 22.256 15.9309 22.256ZM14.1069 17.184L12.2509 16.224L12.8269 10.8H19.4669V12.88H14.5709L14.1069 17.184Z"/>
</svg>
