<svg viewBox="0 0 32 32" fill="none" xmlns="http://www.w3.org/2000/svg">
<rect x="3" y="3" width="26" height="26" rx="13"/>
<path d="M15.8792 22.256C15.1219 22.256 14.4285 22.0907 13.7992 21.76C13.1805 21.4187 12.6899 20.9653 12.3272 20.4C11.9645 19.8347 11.7832 19.2 11.7832 18.496H14.1352C14.1352 18.784 14.2099 19.0453 14.3592 19.28C14.5085 19.504 14.7112 19.6853 14.9672 19.824C15.2339 19.9627 15.5272 20.032 15.8472 20.032C16.1779 20.032 16.4712 19.9573 16.7272 19.808C16.9832 19.648 17.1859 19.44 17.3352 19.184C17.4952 18.9173 17.5752 18.624 17.5752 18.304C17.5752 17.984 17.4952 17.696 17.3352 17.44C17.1859 17.1733 16.9779 16.9653 16.7112 16.816C16.4552 16.6667 16.1672 16.592 15.8472 16.592V14.368C16.6045 14.3573 17.2925 14.528 17.9112 14.88C18.5299 15.2213 19.0205 15.6907 19.3832 16.288C19.7459 16.8853 19.9272 17.552 19.9272 18.288C19.9272 19.0347 19.7459 19.7067 19.3832 20.304C19.0205 20.9013 18.5352 21.376 17.9272 21.728C17.3192 22.08 16.6365 22.256 15.8792 22.256ZM14.5832 16.592V15.056L16.5032 12.992H19.3032L16.0552 16.064V16.592H14.5832ZM12.9512 12.992V10.8H19.3032V12.992H12.9512Z"/>
</svg>
