<svg viewBox="0 0 32 32" fill="none" xmlns="http://www.w3.org/2000/svg">
<rect x="3" y="3" width="26" height="26" rx="13" fill="#F24822"/>
<path d="M15.8394 22.256C15.0714 22.256 14.3727 22.0747 13.7434 21.712C13.1247 21.3387 12.6287 20.8427 12.2554 20.224C11.8927 19.5947 11.7114 18.9067 11.7114 18.16C11.7114 17.776 11.7594 17.4027 11.8554 17.04C11.962 16.6773 12.1114 16.3467 12.3034 16.048L15.1034 10.8H17.7114L15.9354 14.096C16.3834 14.1067 16.8154 14.176 17.2314 14.304C17.6474 14.432 18.0314 14.6187 18.3834 14.864C18.7354 15.0987 19.0447 15.3867 19.3114 15.728C19.578 16.0693 19.786 16.448 19.9354 16.864C20.0847 17.2693 20.1594 17.7067 20.1594 18.176C20.1594 18.9333 19.9674 19.6213 19.5834 20.24C19.1994 20.8587 18.682 21.3493 18.0314 21.712C17.3807 22.0747 16.65 22.256 15.8394 22.256ZM15.9354 20.032C16.2874 20.032 16.602 19.952 16.8794 19.792C17.1674 19.6213 17.3914 19.3973 17.5514 19.12C17.722 18.832 17.8074 18.512 17.8074 18.16C17.8074 17.808 17.722 17.4933 17.5514 17.216C17.3914 16.928 17.1674 16.704 16.8794 16.544C16.602 16.3733 16.2874 16.288 15.9354 16.288C15.594 16.288 15.2794 16.3733 14.9914 16.544C14.7034 16.7147 14.474 16.944 14.3034 17.232C14.1434 17.5093 14.0634 17.8187 14.0634 18.16C14.0634 18.5013 14.1434 18.816 14.3034 19.104C14.474 19.3813 14.698 19.6053 14.9754 19.776C15.2634 19.9467 15.5834 20.032 15.9354 20.032Z"/>
</svg>
