<svg width="48" height="48" viewBox="0 0 48 48" fill="none" xmlns="http://www.w3.org/2000/svg">
<g id="Breakpoint=Desktop, Variants=Default, Icon=Settings">
<path id="Settings-Cancel-icon" d="M24 6C33.9411 6 42 14.0589 42 24C41.9999 33.9411 33.9411 42 24 42C14.059 41.9999 6.00007 33.941 6 24C6 14.0589 14.0589 6.00006 24 6ZM27.4609 11.25C27.2987 11.25 27.1368 11.326 26.9854 11.4775C26.8232 11.6399 26.7144 11.7909 26.6387 11.9316C26.444 12.4728 26.098 12.928 25.6006 13.2852C25.1033 13.6421 24.5411 13.8154 23.9033 13.8154C23.287 13.8154 22.7462 13.6307 22.292 13.252C21.8378 12.884 21.5131 12.451 21.3076 11.9531C21.2536 11.7909 21.1668 11.6289 21.0264 11.4775C20.8858 11.326 20.7018 11.25 20.4639 11.25C20.2908 11.25 20.0421 11.2827 19.7285 11.3477C19.4149 11.4018 19.09 11.499 18.7656 11.6289C18.4306 11.7479 18.1277 11.9098 17.8467 12.1045C17.5655 12.2993 17.3708 12.5166 17.2627 12.7764C17.2088 12.8845 17.1873 13.0147 17.2197 13.1553C17.2521 13.2957 17.285 13.4251 17.3174 13.5332C17.3282 13.6523 17.3494 13.8262 17.3818 14.0859C17.4034 14.3348 17.4034 14.616 17.3818 14.9297C17.3494 15.2326 17.2848 15.5465 17.1875 15.8711C17.0902 16.1958 16.9272 16.4671 16.7109 16.6836C16.2569 17.1162 15.7381 17.3763 15.1436 17.4629C14.5488 17.5387 13.9861 17.4733 13.4346 17.2568C13.2616 17.2027 13.121 17.1701 12.9805 17.1484C12.8399 17.1268 12.6992 17.1702 12.5586 17.2568C12.3748 17.365 12.2022 17.5276 12.0508 17.7656C11.8994 18.0037 11.7586 18.2529 11.6396 18.5234C11.5316 18.8047 11.4341 19.0859 11.3584 19.3779C11.2827 19.67 11.25 19.93 11.25 20.168C11.25 20.3843 11.3041 20.5903 11.4121 20.8066C11.5202 21.023 11.6611 21.1529 11.8232 21.207C12.3747 21.4235 12.8614 21.77 13.3047 22.2461C13.748 22.7115 13.9648 23.2746 13.9648 23.9131C13.9648 24.5408 13.7372 25.1037 13.3047 25.6016C12.8613 26.1102 12.3747 26.4671 11.8232 26.6836C11.5097 26.7918 11.3256 27.0519 11.2715 27.4521C11.239 27.6686 11.2505 27.9398 11.3262 28.2861C11.4018 28.6323 11.4992 28.9568 11.6289 29.2705C11.7695 29.5844 11.9207 29.8769 12.0938 30.1475C12.2668 30.418 12.4508 30.5805 12.6562 30.6562C12.9157 30.7644 13.1644 30.7857 13.4238 30.71C13.8239 30.5801 14.2241 30.5158 14.6025 30.4941C14.927 30.4725 15.2729 30.516 15.6406 30.5918C16.0083 30.6676 16.3108 30.8515 16.5703 31.1221C16.992 31.5766 17.2302 32.0741 17.2734 32.6152C17.3275 33.1563 17.2523 33.6326 17.0469 34.0547C16.9063 34.3686 16.83 34.6071 16.8408 34.7803C16.8517 34.9532 16.9058 35.1046 16.9922 35.2344C17.1219 35.4183 17.3061 35.6022 17.5654 35.7861C17.8249 35.9701 18.1063 36.122 18.4307 36.2627C18.7551 36.4034 19.0691 36.5228 19.3936 36.6094C19.7179 36.7067 19.9993 36.75 20.2588 36.75C20.4858 36.75 20.6805 36.696 20.8643 36.5986C21.0481 36.5012 21.1889 36.3385 21.2754 36.1221C21.4809 35.5701 21.8375 35.0939 22.335 34.6826C22.8431 34.2714 23.4052 34.0655 24.0215 34.0654C24.6595 34.0654 25.2223 34.2713 25.709 34.6826C26.1956 35.083 26.5309 35.5808 26.7363 36.1436H26.7686C26.8226 36.2842 26.9309 36.4249 27.0713 36.5547C27.2118 36.6845 27.3741 36.7499 27.5361 36.75C27.774 36.75 28.0448 36.7174 28.3584 36.6416C28.6719 36.5659 28.964 36.4687 29.2451 36.3389C29.5262 36.209 29.7856 36.0675 30.0234 35.916C30.2613 35.7537 30.4348 35.6026 30.543 35.4619C30.7808 35.0941 30.8134 34.737 30.6299 34.3691C30.392 33.8389 30.3052 33.2865 30.3809 32.7021C30.4566 32.1178 30.716 31.5981 31.1484 31.1436C31.3539 30.9271 31.5919 30.7643 31.873 30.6777C32.1542 30.5911 32.4356 30.5374 32.7168 30.5049C32.9979 30.4832 33.2795 30.4938 33.5498 30.5371C33.8199 30.5804 34.0468 30.6344 34.2305 30.6885C34.4359 30.7642 34.62 30.7969 34.7822 30.7969C34.9444 30.7969 35.1392 30.743 35.3555 30.6348C35.5825 30.5157 35.7772 30.3426 35.9609 30.083C36.1448 29.8341 36.296 29.5414 36.4258 29.2275C36.5555 28.9137 36.6422 28.5999 36.6963 28.2861C36.7612 27.9832 36.7609 27.7125 36.7285 27.4961C36.6528 27.2364 36.5124 27.0198 36.2529 26.8467C36.1664 26.7709 36.0584 26.7056 35.9287 26.6299C35.3772 26.4351 34.9339 26.0992 34.5986 25.6338C34.2635 25.1684 34.0899 24.6168 34.0898 24C34.0898 23.3616 34.2954 22.7986 34.6953 22.29C35.0954 21.7815 35.5823 21.4352 36.1445 21.2295C36.2851 21.1646 36.4259 21.0559 36.5664 20.8828C36.707 20.7096 36.7502 20.4711 36.7178 20.1572C36.6529 19.6378 36.5013 19.1073 36.2959 18.5879C36.0905 18.0577 35.8416 17.6787 35.5713 17.4189C35.4308 17.2677 35.2472 17.1916 35.042 17.1699C34.8365 17.1483 34.6523 17.1917 34.5117 17.2783C33.971 17.5272 33.3763 17.6361 32.7383 17.5928C32.1002 17.5495 31.5595 17.3001 31.127 16.8672C30.6944 16.4234 30.4244 15.9145 30.3379 15.3301C30.2406 14.7457 30.3158 14.1934 30.5537 13.6631C30.5861 13.5874 30.6297 13.4686 30.6621 13.2959C30.6946 13.1227 30.6617 12.96 30.5752 12.8193C30.4346 12.5812 30.2399 12.3648 29.9912 12.1592C29.7426 11.9536 29.4725 11.791 29.1807 11.6611C28.8888 11.5313 28.5966 11.4341 28.2939 11.3584C27.9912 11.2826 27.7205 11.25 27.4609 11.25ZM24 18.0254C24.8219 18.0254 25.6006 18.1773 26.3252 18.4912C27.0604 18.805 27.6879 19.2265 28.2285 19.7676C28.7692 20.3087 29.1913 20.9369 29.5049 21.6621C29.8185 22.3872 29.9697 23.156 29.9697 23.9785C29.9697 24.801 29.8185 25.5698 29.5049 26.2949C29.1913 27.0199 28.7691 27.6473 28.2285 28.1992C27.6878 28.7512 27.0498 29.1734 26.3252 29.4873C25.6007 29.8011 24.8218 29.9531 24 29.9531C23.1782 29.9531 22.41 29.8012 21.6855 29.4873C20.9612 29.1735 20.3345 28.751 19.7939 28.1992C19.2533 27.6473 18.8312 27.0199 18.5176 26.2949C18.204 25.5698 18.0528 24.801 18.0527 23.9785C18.0527 23.1559 18.204 22.3873 18.5176 21.6621C18.8312 20.9369 19.2532 20.3087 19.7939 19.7676C20.3344 19.2267 20.9614 18.805 21.6855 18.4912C22.41 18.1774 23.1782 18.0254 24 18.0254Z" fill="white"/>
</g>
</svg>
