<svg xmlns="http://www.w3.org/2000/svg" version="1.1" xmlns:xlink="http://www.w3.org/1999/xlink" width="24" height="24"><svg xmlns="http://www.w3.org/2000/svg" version="1.1" xmlns:xlink="http://www.w3.org/1999/xlink" width="24" height="24"><svg id="Logo" xmlns="http://www.w3.org/2000/svg" viewBox="0 0 24 24">
<path fill="#515151" d="M20,3.07v17.85c2.45-2.2,4-5.38,4-8.93s-1.55-6.73-4-8.93Z"></path>
<path fill="#515151" d="M4,3.07C1.55,5.27,0,8.45,0,12s1.55,6.73,4,8.93V3.07Z"></path>
<path fill="#FF4F87" d="M16,8.64l-4,4-4-4v14.66c1.25.44,2.6.7,4,.7s2.75-.25,4-.7v-14.66Z"></path>
<path fill="#FF4F87" d="M12,6.99l5.6-5.6c-1.67-.88-3.58-1.39-5.6-1.39s-3.93.51-5.6,1.39l5.6,5.6Z"></path>
</svg></svg><style>@media (prefers-color-scheme: light) { :root { filter: none; } }
@media (prefers-color-scheme: dark) { :root { filter: none; } }
</style></svg>