<svg fill="none" height="75" viewBox="0 0 75 75" width="75" xmlns="http://www.w3.org/2000/svg" xmlns:xlink="http://www.w3.org/1999/xlink"><clipPath id="a"><path d="m0 0h75v75h-75z"/></clipPath><g clip-path="url(#a)"><path d="m13.2812.75h48.4376c7.3437 0 13.2812 5.9375 13.2812 13.2812v46.5626c0 7.3437-5.9375 13.2812-13.2812 13.2812h-48.4376c-7.3437 0-13.2812-5.9375-13.2812-13.2812v-46.5626c0-7.3437 5.9375-13.2812 13.2812-13.2812z" fill="#00005b"/><path d="m17.8125 52v-32.1875c0-.2187.0938-.3437.3125-.3437.5313 0 1.0312 0 1.75-.0313.75-.0313 1.5312-.0313 2.375-.0625.8437-.0313 1.75-.0312 2.7188-.0625.9687-.0312 1.9062-.0313 2.8437-.0313 2.5625 0 4.6875.3126 6.4375.9688 1.5625.5313 3 1.4062 4.1875 2.5625 1 1 1.7813 2.2188 2.2813 3.5625.4687 1.3125.7187 2.6563.7187 4.0625 0 2.6875-.625 4.9063-1.875 6.6563s-3 3.0624-5.0313 3.8124c-2.125.7813-4.4687 1.0625-7.0312 1.0625-.75 0-1.25.0001-1.5625-.0312s-.75-.0313-1.3438-.0313v10.0313c.0313.2187-.125.4062-.3437.4375h-6.0625c-.25 0-.375-.125-.375-.4063zm6.8125-26.4687v10.5c.4375.0312.8437.0624 1.2187.0624h1.6563c1.2188 0 2.4375-.1874 3.5938-.5624 1-.2813 1.8749-.875 2.5624-1.6563.6563-.7812.9688-1.8438.9688-3.2188.0313-.9687-.2187-1.9374-.7188-2.7812-.5312-.8125-1.2812-1.4375-2.1874-1.7813-1.1563-.4687-2.4063-.6562-3.6876-.625-.8125 0-1.5312 0-2.1249.0313-.625-.0313-1.0625 0-1.2813.0313zm21.3125 1.8437h5.4687c.3126 0 .5626.2188.6563.5.0938.25.1562.5.1875.7813.0625.3125.125.6562.1562.9687.0313.3438.0625.7188.0625 1.125.9375-1.0937 2.0626-2 3.3438-2.6875 1.4375-.8125 3.0938-1.2187 4.75-1.2187.2188-.0313.4062.1249.4375.3437v6.2188c0 .25-.1562.3437-.5.3437-1.125-.0313-2.2812.0625-3.375.3125-.9062.1875-1.7813.4688-2.625.8438-.5938.2812-1.1562.6562-1.5937 1.1562v15.9375c0 .3125-.1251.4375-.4063.4375h-6.1562c-.25.0312-.4688-.125-.5001-.375v-17.4375c0-.75.0001-1.5312-.0312-2.3437-.0312-.8125-.0313-1.6251-.0625-2.4376 0-.7187-.0625-1.4062-.125-2.1249-.0313-.1563.0625-.3126.2187-.3438 0-.0313.0625-.0313.0938 0z" fill="#99f"/></g></svg>