<svg fill="none" height="75" viewBox="0 0 75 75" width="75" xmlns="http://www.w3.org/2000/svg" xmlns:xlink="http://www.w3.org/1999/xlink"><clipPath id="a"><path d="m0 0h75v75h-75z"/></clipPath><g clip-path="url(#a)"><path d="m13.2812.75h48.4376c7.3437 0 13.2812 5.9375 13.2812 13.2812v46.5626c0 7.3437-5.9375 13.2812-13.2812 13.2812h-48.4376c-7.3437 0-13.2812-5.9375-13.2812-13.2812v-46.5626c0-7.3437 5.9375-13.2812 13.2812-13.2812z" fill="#49021f"/><path d="m27.25 19.8745v32.1875c0 .3437-.1562.5-.4375.5h-6.125c-.2813 0-.4063-.1563-.4063-.5v-32.1875c0-.2813.1563-.4063.4376-.4063h6.0937c.1875-.0312.375.0938.4062.3125.0313.0313.0313.0625.0313.0938zm18.0625 33.0625c-2.3125.0312-4.625-.4375-6.7188-1.4063-1.9687-.9062-3.5937-2.4062-4.7187-4.25-1.1563-1.9062-1.7188-4.2812-1.7188-7.125-.0312-2.3125.5625-4.5937 1.7188-6.5937 1.1875-2.0313 2.9063-3.7188 4.9688-4.8438 2.1875-1.2187 4.8125-1.8125 7.9062-1.8125.1563 0 .375 0 .6562.0313.2813.0312.5938.0312.9688.0625v-9.875c0-.2188.0938-.3438.3125-.3438h6.3438c.1562-.0312.2812.0938.3125.2188v29.8125c0 .5625.0312 1.1875.0625 1.875.0625.6562.0937 1.2812.1249 1.8125 0 .2187-.0937.4062-.3125.5-1.625.6875-3.3437 1.1875-5.0937 1.5-1.5625.2812-3.1875.4375-4.8125.4375zm3.0625-6.25v-13.75c-.2812-.0625-.5625-.125-.8437-.1563-.3438-.0312-.6875-.0625-1.0313-.0625-1.2187 0-2.4375.25-3.5313.8125-1.0625.5313-1.9687 1.3125-2.6562 2.3125s-1.0313 2.3438-1.0313 3.9688c-.0312 1.0937.1563 2.1875.5313 3.2187.3125.8438.7812 1.5938 1.4062 2.2188.5938.5625 1.3125 1 2.125 1.25.8438.2812 1.7188.4062 2.5938.4062.4687 0 .9062-.0312 1.3125-.0625.4062.0313.7813-.0312 1.125-.1562z" fill="#f36"/></g></svg>