<svg fill="none" height="48" viewBox="0 0 48 48" width="48" xmlns="http://www.w3.org/2000/svg" xmlns:xlink="http://www.w3.org/1999/xlink"><mask id="a" height="36" maskUnits="userSpaceOnUse" width="36" x="6" y="6"><path d="m24 42c9.9411 0 18-8.0589 18-18s-8.0589-18-18-18-18 8.0589-18 18 8.0589 18 18 18z" fill="#fff"/></mask><g mask="url(#a)"><path d="m6 6 .5625 1.54688-.5625 1.61718v1.61714l2.25 3.7969-2.25 3.7969v2.25l2.25 3.375-2.25 3.375v2.25l2.25 3.7969-2.25 3.7969v4.7812l1.54688-.5625 1.61718.5625h1.61714l3.7969-2.25 3.7969 2.25h2.25l3.375-2.25 3.375 2.25h2.25l3.7969-2.25 3.7969 2.25h4.7812l-.5625-1.5469.5625-1.6172v-1.6171l-2.25-3.7969 2.25-3.7969v-2.25l-2.25-3.375 2.25-3.375v-2.25l-2.25-3.7969 2.25-3.7969v-4.7812l-1.5469.5625-1.6172-.5625h-1.6171l-3.7969 2.25-3.7969-2.25h-2.25l-3.375 2.25-3.375-2.25h-2.25l-3.7969 2.25-3.7969-2.25z" fill="#eee"/><path d="m29.625 6v7.5938l7.5938-7.5938zm12.375 4.7812-7.5938 7.5938h7.5938zm-36 7.5938h7.5938l-7.5938-7.5938zm4.7812-12.375 7.5938 7.5938v-7.5938zm7.5938 36v-7.5938l-7.5938 7.5938zm-12.375-4.7812 7.5938-7.5938h-7.5938zm36-7.5938h-7.5938l7.5938 7.5938zm-4.7812 12.375-7.5938-7.5938v7.5938z" fill="#0052b4"/><path d="m6 6v3.16406l9.2109 9.21094h3.1641zm14.625 0v14.625h-14.625v6.75h14.625v14.625h6.75v-14.625h14.625v-6.75h-14.625v-14.625zm18.2109 0-9.2109 9.2109v3.1641l12.375-12.375zm-20.4609 23.625-12.375 12.375h3.16406l9.21094-9.2109zm11.25 0 12.375 12.375v-3.1641l-9.2109-9.2109z" fill="#d80027"/></g></svg>