<svg fill="none" height="75" viewBox="0 0 75 75" width="75" xmlns="http://www.w3.org/2000/svg" xmlns:xlink="http://www.w3.org/1999/xlink"><clipPath id="a"><path d="m0 0h75v75h-75z"/></clipPath><g clip-path="url(#a)"><path d="m13.2812.75h48.4376c7.3437 0 13.2812 5.9375 13.2812 13.2812v46.5626c0 7.3437-5.9375 13.2812-13.2812 13.2812h-48.4376c-7.3437 0-13.2812-5.9375-13.2812-13.2812v-46.5626c0-7.3437 5.9375-13.2812 13.2812-13.2812z" fill="#470137"/><path d="m39.4371 19.9687-9.375 15.4688 10 16.4062c.0625.125.0937.25.0625.375-.0313.125-.1563.0313-.3438.0625h-7.1562c-.5 0-.8438-.0312-1.0625-.3437-.6563-1.3125-1.3438-2.5938-2-3.9063-.6563-1.2812-1.375-2.5937-2.125-3.9375-.75-1.3437-1.5-2.6875-2.25-4.0625h-.0625c-.6563 1.3438-1.375 2.6875-2.0938 4.0313-.7187 1.3437-1.4375 2.6875-2.125 4-.7187 1.3125-1.4375 2.6562-2.1562 3.9375-.125.3125-.375.3437-.7188.3437h-6.875c-.125 0-.2187.0625-.2187-.0937-.0313-.125 0-.25.0625-.3438l9.7187-15.9375-9.4687-16.0312c-.0938-.125-.125-.25-.0625-.3125.0625-.0938.1875-.125.3125-.125h7.0937c.1563 0 .3125.0312.4375.0625.125.0625.2188.1562.3125.2812.5938 1.3438 1.2813 2.6875 2 4.0313.75 1.3437 1.4688 2.6562 2.25 3.9687.75 1.3125 1.4375 2.625 2.0938 3.9688h.0625c.6562-1.375 1.3437-2.7188 2.0312-4.0313s1.4063-2.625 2.125-3.9375c.7188-1.3125 1.4063-2.6562 2.0938-3.9375.0312-.125.0937-.25.1875-.3125.125-.0625.25-.0937.4062-.0625h6.5938c.1562-.0312.3125.0625.3437.2188.0313.0312-.0312.1562-.0937.2187zm14.4375 32.9688c-2.3125.0312-4.625-.4375-6.7188-1.4063-1.9687-.9062-3.5937-2.4062-4.7187-4.25-1.1563-1.9062-1.7188-4.2812-1.7188-7.125-.0312-2.3125.5625-4.5937 1.7188-6.5937 1.1875-2.0313 2.9062-3.7188 4.9687-4.8438 2.1875-1.2187 4.8125-1.8125 7.9063-1.8125.1562 0 .375 0 .6562.0313.2813.0312.5938.0312.9688.0625v-9.875c0-.2188.0937-.3438.3125-.3438h6.3437c.1563-.0312.2813.0938.3125.2188v29.8125c0 .5625.0313 1.1875.0625 1.875.0625.6562.0938 1.2812.125 1.8125 0 .2187-.0937.4062-.3125.5-1.625.6875-3.3437 1.1875-5.0937 1.5-1.5938.2812-3.1875.4375-4.8125.4375zm3.0625-6.25v-13.75c-.2813-.0625-.5625-.125-.8438-.1563-.3437-.0312-.6875-.0625-1.0312-.0625-1.2188 0-2.4375.25-3.5313.8125-1.0625.5313-1.9687 1.3125-2.6562 2.3125s-1.0313 2.3438-1.0313 3.9688c-.0312 1.0937.1563 2.1875.5313 3.2187.3125.8438.7812 1.5938 1.4062 2.2188.5938.5625 1.3125 1 2.125 1.25.8438.2812 1.7188.4062 2.5938.4062.4687 0 .9062-.0312 1.3125-.0625.4062.0313.75-.0312 1.125-.1562z" fill="#ff61f6"/></g></svg>