<svg fill="none" height="75" viewBox="0 0 75 75" width="75" xmlns="http://www.w3.org/2000/svg" xmlns:xlink="http://www.w3.org/1999/xlink"><clipPath id="a"><path d="m0 0h75v75h-75z"/></clipPath><g clip-path="url(#a)"><path d="m13.2812.75h48.4376c7.3437 0 13.2812 5.9375 13.2812 13.2812v46.5626c0 7.3437-5.9375 13.2812-13.2812 13.2812h-48.4376c-7.3437 0-13.2812-5.9375-13.2812-13.2812v-46.5626c0-7.3437 5.9375-13.2812 13.2812-13.2812z" fill="#300"/><path d="m36.3448 44.625h-11.625l-2.375 7.3438c-.0625.2812-.3125.4687-.5938.4375h-5.875c-.3437 0-.4375-.1875-.3437-.5625l10.0625-28.9688c.0937-.3125.1875-.6562.3125-1.0313.125-.6562.1875-1.3437.1875-2.0312-.0313-.1563.0937-.3125.25-.3437h8.0937c.25 0 .375.0937.4063.25l11.4062 32.1875c.0938.3437 0 .5-.3125.5h-6.5312c-.2188.0312-.4375-.125-.5-.3438zm-9.8125-6.3437h7.9375c-.1875-.6563-.4375-1.4375-.7188-2.25-.2812-.8438-.5625-1.75-.8437-2.6875-.3125-.9688-.5938-1.9063-.9063-2.875-.3125-.9688-.5937-1.8751-.8437-2.7813-.25-.875-.4688-1.6875-.6875-2.4375h-.0625c-.2813 1.3438-.625 2.6875-1.0625 4.0313-.4688 1.5-.9375 3.0625-1.4375 4.625-.4375 1.5937-.9063 3.0625-1.375 4.375zm26.5312-13.4688c-1.0312.0313-2.0312-.375-2.7812-1.0937-.7188-.7813-1.0938-1.8125-1.0625-2.875-.0313-1.0625.375-2.0625 1.125-2.7813.75-.7187 1.75-1.0937 2.7812-1.0937 1.2188 0 2.1563.375 2.8438 1.0937.6875.75 1.0625 1.75 1.0312 2.7813.0313 1.0625-.3437 2.0937-1.0937 2.875-.7188.75-1.7813 1.1562-2.8438 1.0937zm-3.5 27.125v-24.0625c0-.3125.125-.4375.4063-.4375h6.1875c.2812 0 .4062.1563.4062.4375v24.0625c0 .3438-.125.5-.4062.5h-6.125c-.3125 0-.4688-.1875-.4688-.5z" fill="#ff9a00"/></g></svg>