<svg fill="none" height="75" viewBox="0 0 75 75" width="75" xmlns="http://www.w3.org/2000/svg" xmlns:xlink="http://www.w3.org/1999/xlink"><clipPath id="a"><path d="m0 0h75v75h-75z"/></clipPath><g clip-path="url(#a)"><path d="m0 0h75v75h-75z" fill="#92160a"/><path d="m0 0h75v75h-75zm25 9.5-8.4167.08333-.0833 6.99997h-6.25l-.58333.0834v48.4166l.33333.0834h48.1667l.0833-3.8334v-3.0833l6.75.0833.0833-.0833.0834-48.58333-.0834-.08334-16.5833-.08333z" fill="#fefffe"/><path d="m10.2503 16.5835h6.3334l.0833 15.5833v25.9167l.0833.0833 41.5.0834v3.0833l-.0833 3.8333h-48.41667l-.08334-.0833v-48.4167z" fill="#009697"/><path d="m22.4997 30.4165h4l.25.25 1.5833 3.5 1 2.25 1.5833 3.4167 1.1667 2.5833v.1667h.1667l-.0834-4.9167v-5.4167l.0834-1.6666.0833-.0834 1.75-.0833h2l.1667.0833v19.5834l-.0834.0833h-2.8333l-1.4167-.1667-.4166-.8333-1-2.25-1.0834-2.4167-2-4.3333-.8333-1.8333-.1667-.1667v2.25l.0834 5.5-.0834 4.1667-.0833.0833h-3.9167l-.0833-.0833v-19.5zm15.5833 0h4.9167l.1666.1667.4167 1.25.9167 2.25.75 1.8333.0833.1667h.1667l.6666-1.3334.8334-2 .8333-2.0833.0833-.1667 1.6667-.0833h3.0833l.0834.25-.75 1.75-1.4167 3-1.5 3.25-.6667 1.5833.0834.4167.6666 1.4167.75 1.4166 1.0834 2.3334 1.5 3.1666.5 1.0834v.0833h-4.9167l-.6667-1.3333-1.0833-2.75-.75-1.75v-.1667l-.25.25-.9167 2.25-1.1666 3-.3334.5h-4.75l-.0833-.3333.5-1 .8333-1.9167.6667-1.3333 1.1667-2.4167.75-1.6667.5-1.1666-.0834-.6667-1.4166-2.8333-1-2.1667-1.3334-2.75-.5833-1.25z" fill="#fefffe"/></g></svg>