<svg fill="none" height="75" viewBox="0 0 75 75" width="75" xmlns="http://www.w3.org/2000/svg" xmlns:xlink="http://www.w3.org/1999/xlink"><clipPath id="a"><path d="m0 0h75v75h-75z"/></clipPath><g clip-path="url(#a)"><path d="m8.29492 11.9995h64.23098v63.0005h-63.9193c-.17207 0-.31168-.1396-.31168-.3117z" fill="#78082a"/><path d="m13.4638 52.8289-11.2138 6.8698v-52.87757l11.2138-6.82113z" fill="#e85984"/><path d="m13.4639 0h53.6308c.1785 0 .3214.142851.3214.321415v52.507485h-53.9522z" fill="#e51050"/><path d="m26.8588 40.9558 10.0808-29.2195h7.1328l9.8892 29.2195h-6.5907l-1.9285-6.214h-10.1586l-1.909 6.214zm9.7529-11.204h7.4022l-3.1232-10.3307c-.1299-.3799-.2273-.7175-.2987-1.0097s-.1331-.6623-.1818-1.1104h-.1526c-.0649.3929-.1331.7467-.2013 1.0584-.0714.3117-.1591.6396-.2597.9772l-3.1817 10.4119h-.0032zm-2.9447 37.1834c-.2208.4546-.513.8442-.8799 1.1656-.3668.3214-.8051.5681-1.3148.7402-.5098.1721-1.0714.2597-1.6883.2597-.6168 0-.9382-.0617-1.3506-.1818-.4123-.1201-.7856-.2954-1.1168-.5259-.3019-.2111-.5714-.4676-.8084-.7695-.237-.2987-.435-.6331-.5974-.9934-.1558-.3637-.2759-.7598-.3604-1.1948-.0844-.435-.1266-.8961-.1266-1.3831v-1.5226c0-.4545.039-.8896.1137-1.3019.0746-.4123.1883-.7922.3409-1.1461.172-.4285.3993-.8116.6817-1.1493.2825-.3376.6007-.6201.9578-.8538.3182-.1981.6688-.3474 1.0519-.4546.3798-.1071.7922-.159 1.2305-.159.6493 0 1.2272.0876 1.7337.2629.5064.1754.9382.4286 1.2954.7533.3571.3246.6395.7239.8441 1.1947.2045.4708.3344 1.0032.3896 1.5908h-2.2727c-.0227-.3376-.0746-.633-.159-.8863-.0845-.2532-.2046-.4675-.3604-.6363-.1624-.1656-.3636-.2922-.6039-.3766-.2402-.0844-.5292-.1266-.8636-.1266s-.3441.0194-.5.0552c-.1558.0357-.2954.0909-.4253.1623-.2207.1234-.409.3019-.5649.5324-.1558.2305-.2759.5-.3701.8052-.0714.237-.1234.5-.1558.7889-.0325.289-.0487.5974-.0487.9285v1.5389c0 .4513.0259.8539.0779 1.2078.0519.3539.1298.6655.2402.9285.0747.1818.1656.3409.2727.4805.1039.1396.2273.2565.3604.3506.1461.1039.3084.1786.4903.2306.1818.0487.3831.0746.6038.0746.2208 0 .5649-.0357.8052-.1071.237-.0714.4415-.1851.6104-.3409.1688-.1558.3019-.3539.3993-.5974s.1558-.5357.1785-.8766h2.2824c-.0389.5682-.1656 1.0812-.3863 1.5389zm1.1558 2.0032 3.7141-11.1391h2.6265l3.6427 11.1391h-2.4285l-.711-2.37h-3.7401l-.7012 2.37zm3.5907-4.2725h2.7272l-1.1493-3.9382c-.0487-.1461-.0844-.2727-.1104-.3831s-.0487-.2532-.0682-.4221h-.0552c-.0227.1494-.0487.2858-.0747.4026-.0259.1202-.0584.2435-.0941.3734l-1.172 3.9706zm7.8146 4.2725v-11.1391h3.5486c1.8083 0 3.1622.4512 4.068 1.357.9058.9059 1.3571 2.2629 1.3571 4.0745 0 1.8117-.4935 3.12-1.4837 4.1557-.9903 1.0357-2.3051 1.5551-3.9479 1.5551h-3.5421zm2.2142-9.1555v7.1848h1.1558c1.0162 0 1.8149-.3312 2.3928-.9902.5779-.6591.8668-1.5649.8668-2.7142s-.2825-1.9382-.8506-2.5551c-.5682-.6168-1.3701-.9253-2.4058-.9253z" fill="#fff"/></g></svg>