<svg fill="none" height="75" viewBox="0 0 75 75" width="75" xmlns="http://www.w3.org/2000/svg" xmlns:xlink="http://www.w3.org/1999/xlink"><clipPath id="a"><path d="m0 0h75v75h-75z"/></clipPath><clipPath id="b"><path d="m0 0h75v75h-75z"/></clipPath><g clip-path="url(#a)"><g clip-path="url(#b)"><path d="m67.8548 27.0483c-6.1893-1.017-17.2517-1.4095-21.036 4.3888-2.9207 4.4791 2.6012 10.614 7.6289 16.5569 4.0293 4.7613 8.4138 9.3077 6.6248 11.9662-1.4611 2.1729-10.8332 2.1686-14.0646 2.342-3.919.2062-9.5655.2177-10.5524.7563-.8838.4726-1.3766 1.9509 1.9394 2.5453 2.6657.4799 9.0155 1.4524 15.7104 1.4467 6.9886 0 14.3311-1.1473 15.9224-6.5575 1.2792-4.3472-3.1569-9.0054-7.0588-13.7279-4.2685-5.1738-8.5971-8.8608-8.2305-12.5248.2765-2.8519 5.8657-3.0123 15.1404-3.1756 1.928-.0358 5.7682-.1275 5.0276-1.6501-.6603-1.345-3.5337-1.7905-7.0516-2.3649m-28.526 12.8986c-3.9677-2.7215-11.0437-3.6325-16.8663-3.3303-5.1867.2722-14.10471 1.9223-13.7681 3.5638.31655 1.7733 5.9602 1.2233 8.547 1.2233 5.6881 0 14.7149.348 16.1359 4.0107 3.0653 7.8981-17.7258 22.0745-22.159 20.7123-2.00538-.6131 4.0751-10.9191 6.2781-14.6218 1.3106-2.2131 3.3088-5.688 1.6057-5.9258-1.9065-.2621-4.0035 3.008-5.3686 4.8959-3.6984 5.1251-7.48562 10.7228-10.52371 16.471-.94394 1.7761-4.057948 7.1204-2.989388 7.8108.999808.6431 5.753898-.2722 11.801398-2.67 19.0135-7.5257 27.5749-17.3347 29.8696-25.4392.8035-2.8547-.5859-5.3442-2.5611-6.6992m-14.1205-34.6165c-.3882-1.27912 5.953-2.94212 12.9072-3.25009 7.0073-.30796 15.2965 1.08575 16.8435 5.70949 2.531 7.5745-10.3018 18.621-21.4801 24.0512-2.743 1.325-4.4017 1.6902-5.0964 1.5985-.6575-.0873-.7621-.7018-.5458-1.1258.3954-.7964 2.2045-2.4193 4.6138-4.184 12.5863-9.1945 16.6772-15.9396 14.3009-18.6683-1.5255-1.75038-7.9039-2.97077-14.5301-2.97077-1.7977 0-6.5231.39247-7.0116-1.1588" fill="#e62e29"/></g></g></svg>