<svg fill="none" height="75" viewBox="0 0 75 75" width="75" xmlns="http://www.w3.org/2000/svg"><path d="m37.125 37.5c0-6.9034 5.6232-12.5 12.56-12.5 6.9366 0 12.56 5.5966 12.56 12.5 0 6.9036-5.6234 12.5-12.56 12.5-6.9368 0-12.56-5.5964-12.56-12.5z" fill="#1abcfe"/><path d="m12.0049 62.5c0-6.9034 5.6232-12.5 12.56-12.5h12.56v12.5c0 6.9036-5.6233 12.5-12.56 12.5-6.9368 0-12.56-5.5964-12.56-12.5z" fill="#0acf83"/><path d="m37.125 0v24.9998h12.56c6.9367 0 12.56-5.5964 12.56-12.5 0-6.90359-5.6233-12.4998-12.56-12.4998z" fill="#ff7262"/><path d="m12.0049 12.5c0 6.9036 5.6232 12.5 12.56 12.5h12.56v-25h-12.56c-6.9368 0-12.56 5.59656-12.56 12.5z" fill="#f24e1e"/><path d="m12.0049 37.5c0 6.9036 5.6232 12.5 12.56 12.5h12.56v-25h-12.56c-6.9368 0-12.56 5.5966-12.56 12.5z" fill="#a259ff"/></svg>