<svg fill="none" height="75" viewBox="0 0 75 75" width="75" xmlns="http://www.w3.org/2000/svg" xmlns:xlink="http://www.w3.org/1999/xlink"><clipPath id="a"><path d="m0 0h75v75h-75z"/></clipPath><g clip-path="url(#a)"><path d="m13.2812.75h48.4376c7.3437 0 13.2812 5.9375 13.2812 13.2812v46.5626c0 7.3437-5.9375 13.2812-13.2812 13.2812h-48.4376c-7.3437 0-13.2812-5.9375-13.2812-13.2812v-46.5626c0-7.3437 5.9375-13.2812 13.2812-13.2812z" fill="#001e36"/><path d="m16.875 52.0313v-32.1563c0-.2187.0938-.3438.3125-.3438.5313 0 1.0312.0001 1.75-.0312.75-.0313 1.5312-.0313 2.375-.0625.8437-.0313 1.75-.0313 2.7188-.0625.9687-.0313 1.9062-.0312 2.8437-.0312 2.5625 0 4.6875.3124 6.4375.9687 1.5625.5312 3 1.4063 4.1875 2.5625 1 1 1.7813 2.2187 2.2813 3.5625.4687 1.3125.7187 2.6562.7187 4.0625 0 2.6875-.625 4.9063-1.875 6.6562-1.25 1.75-3 3.0625-5.0312 3.8125-2.125.7813-4.4688 1.0626-7.0313 1.0626-.75 0-1.25 0-1.5625-.0313s-.75-.0313-1.3438-.0313v10.0313c.0313.2187-.1249.4062-.3437.4375h-6.0625c-.25 0-.375-.125-.375-.4062zm6.8125-26.4688v10.5c.4375.0313.8437.0625 1.2187.0625h1.6563c1.2188 0 2.4375-.1875 3.5938-.5625 1-.2812 1.875-.875 2.5625-1.6563.6562-.7812.9687-1.8437.9687-3.2187.0313-.9687-.2187-1.9375-.7187-2.7812-.5313-.8125-1.2813-1.4376-2.1875-1.7813-1.1563-.4688-2.4063-.6563-3.6875-.625-.8126 0-1.5313 0-2.125.0313-.625-.0313-1.0625 0-1.2813.0312zm36.3125 8.5938c-.9375-.5-1.9375-.8438-3-1.0625-1.1562-.2501-2.3125-.4063-3.5-.4063-.625-.0313-1.2812.0625-1.875.2188-.4062.0937-.75.3125-.9687.625-.1563.25-.25.5624-.25.8437 0 .2812.125.5625.3125.8125.2812.3437.6562.625 1.0625.8438.7187.375 1.4687.7187 2.2187 1.0312 1.6875.5625 3.3125 1.3437 4.8125 2.2813 1.0313.6562 1.875 1.5312 2.4688 2.5937.5 1 .75 2.0938.7187 3.2188.0313 1.4687-.4062 2.9374-1.2187 4.1562-.875 1.25-2.0938 2.2188-3.5 2.7813-1.5313.6562-3.4063 1-5.6563 1-1.4375 0-2.8437-.1251-4.25-.4063-1.0937-.1875-2.1875-.5313-3.1875-1-.2187-.125-.375-.3437-.3437-.5937v-5.4376c0-.0937.0312-.2187.125-.2812.0937-.0625.1875-.0313.2812.0312 1.2188.7188 2.5 1.2188 3.875 1.5313 1.1875.3125 2.4375.4688 3.6875.4688 1.1875 0 2.0313-.1563 2.5938-.4376.5-.2187.8437-.75.8437-1.3125 0-.4375-.25-.8437-.75-1.25-.5-.4062-1.5312-.875-3.0625-1.4687-1.5937-.5625-3.0625-1.3125-4.4375-2.25-.9687-.6875-1.7812-1.5937-2.375-2.6562-.5-1-.75-2.0938-.7187-3.1876 0-1.3437.375-2.6249 1.0625-3.7812.7812-1.25 1.9375-2.25 3.2812-2.875 1.4688-.75 3.3125-1.0937 5.5313-1.0937 1.2812 0 2.5937.0937 3.875.2812.9375.125 1.8437.375 2.6875.7188.125.0312.25.1562.3125.2812.0312.125.0625.25.0625.375v5.0938c0 .125-.0625.25-.1563.3125-.2812.0625-.4375.0625-.5625 0z" fill="#31a8ff"/></g></svg>